<svg width="53" height="45" viewBox="0 0 53 45" fill="none" xmlns="http://www.w3.org/2000/svg">
<path fill-rule="evenodd" clip-rule="evenodd" d="M33.7207 44.3288C45.0157 37.0748 51.2907 28.6313 52.5457 18.9983C54.5002 4.00282 41.0902 -3.33668 34.2952 3.25732C27.5002 9.85133 31.5727 18.2228 36.4927 20.5118C41.4127 22.8008 44.4217 22.0028 43.8967 25.0613C43.3717 28.1198 36.3727 36.5963 30.2227 40.5443C30.0051 40.7299 29.8663 40.9913 29.8345 41.2755C29.8028 41.5597 29.8804 41.8453 30.0517 42.0743L31.5727 44.0528C32.2327 44.9108 32.8657 44.8778 33.7207 44.3303M3.98173 44.3288C15.2767 37.0748 21.5517 28.6313 22.8067 18.9983C24.7627 4.00283 11.3527 -3.33667 4.55772 3.25733C-2.23727 9.85133 1.83523 18.2228 6.75672 20.5118C11.6782 22.8008 14.6857 22.0028 14.1607 25.0613C13.6357 28.1198 6.63523 36.5963 0.485233 40.5443C0.267833 40.7301 0.12931 40.9916 0.0978273 41.2758C0.0663447 41.56 0.144256 41.8455 0.315727 42.0743L1.83523 44.0528C2.49523 44.9108 3.12823 44.8778 3.98173 44.3303" fill="#024349" fill-opacity="0.2"/>
</svg>
