<svg width="240" height="12" viewBox="0 0 240 12" fill="none" xmlns="http://www.w3.org/2000/svg">
<path d="M1.77148 5C1.2192 5 0.771484 5.44772 0.771484 6C0.771484 6.55228 1.2192 7 1.77148 7L1.77148 5ZM228.894 6.00002C228.894 8.94554 231.281 11.3334 234.227 11.3334C237.172 11.3334 239.56 8.94554 239.56 6.00002C239.56 3.0545 237.172 0.666687 234.227 0.666687C231.281 0.666687 228.894 3.0545 228.894 6.00002ZM2.26818 7C2.82047 7 3.26818 6.55228 3.26818 6C3.26818 5.44772 2.82047 5 2.26818 5L2.26818 7ZM7.23518 5C6.6829 5 6.23518 5.44772 6.23518 6C6.23518 6.55229 6.6829 7 7.23518 7L7.23518 5ZM8.22858 7C8.78086 7 9.22858 6.55229 9.22858 6C9.22858 5.44772 8.78086 5 8.22858 5L8.22858 7ZM13.1956 5C12.6433 5 12.1956 5.44772 12.1956 6C12.1956 6.55229 12.6433 7 13.1956 7L13.1956 5ZM14.189 7C14.7413 7 15.189 6.55229 15.189 6C15.189 5.44772 14.7413 5 14.189 5L14.189 7ZM19.156 5C18.6037 5 18.156 5.44772 18.156 6C18.156 6.55229 18.6037 7 19.156 7L19.156 5ZM20.1494 7C20.7017 7 21.1494 6.55229 21.1494 6C21.1494 5.44772 20.7017 5 20.1494 5L20.1494 7ZM25.1164 5C24.5641 5 24.1164 5.44772 24.1164 6C24.1164 6.55229 24.5641 7 25.1164 7L25.1164 5ZM26.1098 7C26.6621 7 27.1098 6.55229 27.1098 6C27.1098 5.44772 26.6621 5 26.1098 5L26.1098 7ZM31.0768 5C30.5245 5 30.0768 5.44772 30.0768 6C30.0768 6.55229 30.5245 7 31.0768 7L31.0768 5ZM32.0702 7C32.6224 7 33.0702 6.55229 33.0702 6C33.0702 5.44772 32.6224 5 32.0702 5L32.0702 7ZM37.0372 5C36.4849 5 36.0372 5.44772 36.0372 6C36.0372 6.55229 36.4849 7 37.0372 7L37.0372 5ZM38.0306 7C38.5828 7 39.0306 6.55229 39.0306 6C39.0306 5.44772 38.5828 5 38.0306 5L38.0306 7ZM42.9976 5C42.4453 5 41.9976 5.44772 41.9976 6C41.9976 6.55229 42.4453 7 42.9976 7L42.9976 5ZM43.991 7C44.5432 7 44.991 6.55229 44.991 6C44.991 5.44772 44.5432 5 43.991 5L43.991 7ZM48.958 5C48.4057 5 47.958 5.44772 47.958 6C47.958 6.55229 48.4057 7 48.958 7L48.958 5ZM49.9514 7C50.5036 7 50.9514 6.55229 50.9514 6C50.9514 5.44772 50.5036 5 49.9514 5L49.9514 7ZM54.9183 5C54.3661 5 53.9183 5.44772 53.9183 6C53.9183 6.55229 54.3661 7 54.9183 7L54.9183 5ZM55.9117 7C56.464 7 56.9117 6.55229 56.9117 6C56.9117 5.44772 56.464 5 55.9117 5L55.9117 7ZM60.8787 5.00001C60.3265 5.00001 59.8787 5.44772 59.8787 6.00001C59.8787 6.55229 60.3265 7.00001 60.8787 7.00001L60.8787 5.00001ZM61.8721 7.00001C62.4244 7.00001 62.8721 6.55229 62.8721 6.00001C62.8721 5.44772 62.4244 5.00001 61.8721 5.00001L61.8721 7.00001ZM66.8391 5.00001C66.2869 5.00001 65.8391 5.44772 65.8391 6.00001C65.8391 6.55229 66.2869 7.00001 66.8391 7.00001L66.8391 5.00001ZM67.8325 7.00001C68.3848 7.00001 68.8325 6.55229 68.8325 6.00001C68.8325 5.44772 68.3848 5.00001 67.8325 5.00001L67.8325 7.00001ZM72.7995 5.00001C72.2473 5.00001 71.7995 5.44772 71.7995 6.00001C71.7995 6.55229 72.2473 7.00001 72.7995 7.00001L72.7995 5.00001ZM73.7929 7.00001C74.3452 7.00001 74.7929 6.55229 74.7929 6.00001C74.7929 5.44772 74.3452 5.00001 73.7929 5.00001L73.7929 7.00001ZM78.7599 5.00001C78.2076 5.00001 77.7599 5.44772 77.7599 6.00001C77.7599 6.55229 78.2076 7.00001 78.7599 7.00001L78.7599 5.00001ZM79.7533 7.00001C80.3056 7.00001 80.7533 6.55229 80.7533 6.00001C80.7533 5.44772 80.3056 5.00001 79.7533 5.00001L79.7533 7.00001ZM84.7203 5.00001C84.168 5.00001 83.7203 5.44772 83.7203 6.00001C83.7203 6.55229 84.168 7.00001 84.7203 7.00001L84.7203 5.00001ZM85.7137 7.00001C86.266 7.00001 86.7137 6.55229 86.7137 6.00001C86.7137 5.44772 86.266 5.00001 85.7137 5.00001L85.7137 7.00001ZM90.6807 5.00001C90.1284 5.00001 89.6807 5.44772 89.6807 6.00001C89.6807 6.55229 90.1284 7.00001 90.6807 7.00001L90.6807 5.00001ZM91.6741 7.00001C92.2264 7.00001 92.6741 6.55229 92.6741 6.00001C92.6741 5.44772 92.2264 5.00001 91.6741 5.00001L91.6741 7.00001ZM96.6411 5.00001C96.0888 5.00001 95.6411 5.44772 95.6411 6.00001C95.6411 6.55229 96.0888 7.00001 96.6411 7.00001L96.6411 5.00001ZM97.6345 7.00001C98.1868 7.00001 98.6345 6.55229 98.6345 6.00001C98.6345 5.44772 98.1868 5.00001 97.6345 5.00001L97.6345 7.00001ZM102.602 5.00001C102.049 5.00001 101.602 5.44772 101.602 6.00001C101.602 6.55229 102.049 7.00001 102.602 7.00001L102.602 5.00001ZM103.595 7.00001C104.147 7.00001 104.595 6.55229 104.595 6.00001C104.595 5.44772 104.147 5.00001 103.595 5.00001L103.595 7.00001ZM108.562 5.00001C108.01 5.00001 107.562 5.44772 107.562 6.00001C107.562 6.55229 108.01 7.00001 108.562 7.00001L108.562 5.00001ZM109.555 7.00001C110.108 7.00001 110.555 6.55229 110.555 6.00001C110.555 5.44772 110.108 5.00001 109.555 5.00001L109.555 7.00001ZM114.522 5.00001C113.97 5.00001 113.522 5.44772 113.522 6.00001C113.522 6.55229 113.97 7.00001 114.522 7.00001L114.522 5.00001ZM115.516 7.00001C116.068 7.00001 116.516 6.55229 116.516 6.00001C116.516 5.44773 116.068 5.00001 115.516 5.00001L115.516 7.00001ZM120.483 5.00001C119.93 5.00001 119.483 5.44773 119.483 6.00001C119.483 6.5523 119.93 7.00001 120.483 7.00001L120.483 5.00001ZM121.476 7.00001C122.028 7.00001 122.476 6.5523 122.476 6.00001C122.476 5.44773 122.028 5.00001 121.476 5.00001L121.476 7.00001ZM126.443 5.00001C125.891 5.00001 125.443 5.44773 125.443 6.00001C125.443 6.5523 125.891 7.00001 126.443 7.00001L126.443 5.00001ZM127.436 7.00001C127.989 7.00001 128.436 6.5523 128.436 6.00001C128.436 5.44773 127.989 5.00001 127.436 5.00001L127.436 7.00001ZM132.404 5.00001C131.851 5.00001 131.404 5.44773 131.404 6.00001C131.404 6.5523 131.851 7.00001 132.404 7.00001L132.404 5.00001ZM133.397 7.00001C133.949 7.00001 134.397 6.5523 134.397 6.00001C134.397 5.44773 133.949 5.00001 133.397 5.00001L133.397 7.00001ZM138.364 5.00001C137.812 5.00001 137.364 5.44773 137.364 6.00001C137.364 6.5523 137.812 7.00001 138.364 7.00001L138.364 5.00001ZM139.357 7.00001C139.91 7.00001 140.357 6.5523 140.357 6.00001C140.357 5.44773 139.91 5.00001 139.357 5.00001L139.357 7.00001ZM144.324 5.00001C143.772 5.00001 143.324 5.44773 143.324 6.00001C143.324 6.5523 143.772 7.00001 144.324 7.00001L144.324 5.00001ZM145.318 7.00001C145.87 7.00001 146.318 6.5523 146.318 6.00001C146.318 5.44773 145.87 5.00001 145.318 5.00001L145.318 7.00001ZM150.285 5.00001C149.732 5.00001 149.285 5.44773 149.285 6.00001C149.285 6.5523 149.732 7.00001 150.285 7.00001L150.285 5.00001ZM151.278 7.00001C151.83 7.00001 152.278 6.5523 152.278 6.00001C152.278 5.44773 151.83 5.00001 151.278 5.00001L151.278 7.00001ZM156.245 5.00001C155.693 5.00001 155.245 5.44773 155.245 6.00001C155.245 6.5523 155.693 7.00001 156.245 7.00001L156.245 5.00001ZM157.238 7.00001C157.791 7.00001 158.238 6.5523 158.238 6.00001C158.238 5.44773 157.791 5.00001 157.238 5.00001L157.238 7.00001ZM162.205 5.00001C161.653 5.00001 161.205 5.44773 161.205 6.00001C161.205 6.5523 161.653 7.00001 162.205 7.00001L162.205 5.00001ZM163.199 7.00001C163.751 7.00001 164.199 6.5523 164.199 6.00001C164.199 5.44773 163.751 5.00001 163.199 5.00001L163.199 7.00001ZM168.166 5.00001C167.614 5.00001 167.166 5.44773 167.166 6.00001C167.166 6.5523 167.614 7.00001 168.166 7.00001L168.166 5.00001ZM169.159 7.00001C169.712 7.00001 170.159 6.5523 170.159 6.00001C170.159 5.44773 169.712 5.00001 169.159 5.00001L169.159 7.00001ZM174.126 5.00002C173.574 5.00002 173.126 5.44773 173.126 6.00001C173.126 6.5523 173.574 7.00002 174.126 7.00002L174.126 5.00002ZM175.12 7.00002C175.672 7.00002 176.12 6.5523 176.12 6.00002C176.12 5.44773 175.672 5.00002 175.12 5.00002L175.12 7.00002ZM180.087 5.00002C179.534 5.00002 179.087 5.44773 179.087 6.00002C179.087 6.5523 179.534 7.00002 180.087 7.00002L180.087 5.00002ZM181.08 7.00002C181.632 7.00002 182.08 6.5523 182.08 6.00002C182.08 5.44773 181.632 5.00002 181.08 5.00002L181.08 7.00002ZM186.047 5.00002C185.495 5.00002 185.047 5.44773 185.047 6.00002C185.047 6.5523 185.495 7.00002 186.047 7.00002L186.047 5.00002ZM187.04 7.00002C187.593 7.00002 188.04 6.5523 188.04 6.00002C188.04 5.44773 187.593 5.00002 187.04 5.00002L187.04 7.00002ZM192.007 5.00002C191.455 5.00002 191.007 5.44773 191.007 6.00002C191.007 6.5523 191.455 7.00002 192.007 7.00002L192.007 5.00002ZM193.001 7.00002C193.553 7.00002 194.001 6.5523 194.001 6.00002C194.001 5.44773 193.553 5.00002 193.001 5.00002L193.001 7.00002ZM197.968 5.00002C197.415 5.00002 196.968 5.44773 196.968 6.00002C196.968 6.5523 197.415 7.00002 197.968 7.00002L197.968 5.00002ZM198.961 7.00002C199.513 7.00002 199.961 6.5523 199.961 6.00002C199.961 5.44773 199.513 5.00002 198.961 5.00002L198.961 7.00002ZM203.928 5.00002C203.376 5.00002 202.928 5.44773 202.928 6.00002C202.928 6.5523 203.376 7.00002 203.928 7.00002L203.928 5.00002ZM204.922 7.00002C205.474 7.00002 205.922 6.5523 205.922 6.00002C205.922 5.44773 205.474 5.00002 204.922 5.00002L204.922 7.00002ZM209.889 5.00002C209.336 5.00002 208.889 5.44773 208.889 6.00002C208.889 6.5523 209.336 7.00002 209.889 7.00002L209.889 5.00002ZM210.882 7.00002C211.434 7.00002 211.882 6.5523 211.882 6.00002C211.882 5.44773 211.434 5.00002 210.882 5.00002L210.882 7.00002ZM215.849 5.00002C215.297 5.00002 214.849 5.44773 214.849 6.00002C214.849 6.5523 215.297 7.00002 215.849 7.00002L215.849 5.00002ZM216.842 7.00002C217.395 7.00002 217.842 6.5523 217.842 6.00002C217.842 5.44773 217.395 5.00002 216.842 5.00002L216.842 7.00002ZM221.809 5.00002C221.257 5.00002 220.809 5.44773 220.809 6.00002C220.809 6.5523 221.257 7.00002 221.809 7.00002L221.809 5.00002ZM222.803 7.00002C223.355 7.00002 223.803 6.5523 223.803 6.00002C223.803 5.44773 223.355 5.00002 222.803 5.00002L222.803 7.00002ZM227.77 5.00002C227.217 5.00002 226.77 5.44773 226.77 6.00002C226.77 6.5523 227.217 7.00002 227.77 7.00002L227.77 5.00002ZM228.763 7.00002C229.315 7.00002 229.763 6.5523 229.763 6.00002C229.763 5.44774 229.315 5.00002 228.763 5.00002L228.763 7.00002ZM233.73 5.00002C233.178 5.00002 232.73 5.44774 232.73 6.00002C232.73 6.5523 233.178 7.00002 233.73 7.00002L233.73 5.00002ZM1.77148 6L1.77148 7L2.26818 7L2.26818 6L2.26818 5L1.77148 5L1.77148 6ZM7.23518 6L7.23518 7L8.22858 7L8.22858 6L8.22858 5L7.23518 5L7.23518 6ZM13.1956 6L13.1956 7L14.189 7L14.189 6L14.189 5L13.1956 5L13.1956 6ZM19.156 6L19.156 7L20.1494 7L20.1494 6L20.1494 5L19.156 5L19.156 6ZM25.1164 6L25.1164 7L26.1098 7L26.1098 6L26.1098 5L25.1164 5L25.1164 6ZM31.0768 6L31.0768 7L32.0702 7L32.0702 6L32.0702 5L31.0768 5L31.0768 6ZM37.0372 6L37.0372 7L38.0306 7L38.0306 6L38.0306 5L37.0372 5L37.0372 6ZM42.9976 6L42.9976 7L43.991 7L43.991 6L43.991 5L42.9976 5L42.9976 6ZM48.958 6L48.958 7L49.9514 7L49.9514 6L49.9514 5L48.958 5L48.958 6ZM54.9183 6L54.9183 7L55.9117 7L55.9117 6L55.9117 5L54.9183 5L54.9183 6ZM60.8787 6.00001L60.8787 7.00001L61.8721 7.00001L61.8721 6.00001L61.8721 5.00001L60.8787 5.00001L60.8787 6.00001ZM66.8391 6.00001L66.8391 7.00001L67.8325 7.00001L67.8325 6.00001L67.8325 5.00001L66.8391 5.00001L66.8391 6.00001ZM72.7995 6.00001L72.7995 7.00001L73.7929 7.00001L73.7929 6.00001L73.7929 5.00001L72.7995 5.00001L72.7995 6.00001ZM78.7599 6.00001L78.7599 7.00001L79.7533 7.00001L79.7533 6.00001L79.7533 5.00001L78.7599 5.00001L78.7599 6.00001ZM84.7203 6.00001L84.7203 7.00001L85.7137 7.00001L85.7137 6.00001L85.7137 5.00001L84.7203 5.00001L84.7203 6.00001ZM90.6807 6.00001L90.6807 7.00001L91.6741 7.00001L91.6741 6.00001L91.6741 5.00001L90.6807 5.00001L90.6807 6.00001ZM96.6411 6.00001L96.6411 7.00001L97.6345 7.00001L97.6345 6.00001L97.6345 5.00001L96.6411 5.00001L96.6411 6.00001ZM102.602 6.00001L102.602 7.00001L103.595 7.00001L103.595 6.00001L103.595 5.00001L102.602 5.00001L102.602 6.00001ZM108.562 6.00001L108.562 7.00001L109.555 7.00001L109.555 6.00001L109.555 5.00001L108.562 5.00001L108.562 6.00001ZM114.522 6.00001L114.522 7.00001L115.516 7.00001L115.516 6.00001L115.516 5.00001L114.522 5.00001L114.522 6.00001ZM120.483 6.00001L120.483 7.00001L121.476 7.00001L121.476 6.00001L121.476 5.00001L120.483 5.00001L120.483 6.00001ZM126.443 6.00001L126.443 7.00001L127.436 7.00001L127.436 6.00001L127.436 5.00001L126.443 5.00001L126.443 6.00001ZM132.404 6.00001L132.404 7.00001L133.397 7.00001L133.397 6.00001L133.397 5.00001L132.404 5.00001L132.404 6.00001ZM138.364 6.00001L138.364 7.00001L139.357 7.00001L139.357 6.00001L139.357 5.00001L138.364 5.00001L138.364 6.00001ZM144.324 6.00001L144.324 7.00001L145.318 7.00001L145.318 6.00001L145.318 5.00001L144.324 5.00001L144.324 6.00001ZM150.285 6.00001L150.285 7.00001L151.278 7.00001L151.278 6.00001L151.278 5.00001L150.285 5.00001L150.285 6.00001ZM156.245 6.00001L156.245 7.00001L157.238 7.00001L157.238 6.00001L157.238 5.00001L156.245 5.00001L156.245 6.00001ZM162.205 6.00001L162.205 7.00001L163.199 7.00001L163.199 6.00001L163.199 5.00001L162.205 5.00001L162.205 6.00001ZM168.166 6.00001L168.166 7.00001L169.159 7.00001L169.159 6.00001L169.159 5.00001L168.166 5.00001L168.166 6.00001ZM174.126 6.00002L174.126 7.00002L175.12 7.00002L175.12 6.00002L175.12 5.00002L174.126 5.00002L174.126 6.00002ZM180.087 6.00002L180.087 7.00002L181.08 7.00002L181.08 6.00002L181.08 5.00002L180.087 5.00002L180.087 6.00002ZM186.047 6.00002L186.047 7.00002L187.04 7.00002L187.04 6.00002L187.04 5.00002L186.047 5.00002L186.047 6.00002ZM192.007 6.00002L192.007 7.00002L193.001 7.00002L193.001 6.00002L193.001 5.00002L192.007 5.00002L192.007 6.00002ZM197.968 6.00002L197.968 7.00002L198.961 7.00002L198.961 6.00002L198.961 5.00002L197.968 5.00002L197.968 6.00002ZM203.928 6.00002L203.928 7.00002L204.922 7.00002L204.922 6.00002L204.922 5.00002L203.928 5.00002L203.928 6.00002ZM209.889 6.00002L209.889 7.00002L210.882 7.00002L210.882 6.00002L210.882 5.00002L209.889 5.00002L209.889 6.00002ZM215.849 6.00002L215.849 7.00002L216.842 7.00002L216.842 6.00002L216.842 5.00002L215.849 5.00002L215.849 6.00002ZM221.809 6.00002L221.809 7.00002L222.803 7.00002L222.803 6.00002L222.803 5.00002L221.809 5.00002L221.809 6.00002ZM227.77 6.00002L227.77 7.00002L228.763 7.00002L228.763 6.00002L228.763 5.00002L227.77 5.00002L227.77 6.00002ZM233.73 6.00002L233.73 7.00002L234.227 7.00002L234.227 6.00002L234.227 5.00002L233.73 5.00002L233.73 6.00002Z" fill="#024349" fill-opacity="0.3"/>
</svg>
