<svg width="12" height="6" viewBox="0 0 12 6" fill="none" xmlns="http://www.w3.org/2000/svg">
  <g transform="rotate(180 6 3)">
    <path fill-rule="evenodd" clip-rule="evenodd" d="M5.3496 0.478849C5.41539 0.383747 5.51009 0.304763 5.62415 0.249846C5.73821 0.194929 5.86762 0.166016 5.99935 0.166016C6.13108 0.166016 6.26049 0.194929 6.37455 0.249846C6.48861 0.304763 6.5833 0.383747 6.6491 0.478849L10.9661 5.04302C11.0319 5.13803 11.0666 5.2458 11.0666 5.35551C11.0666 5.46522 11.0319 5.573 10.9661 5.66801C10.9003 5.76302 10.8056 5.84192 10.6916 5.89678C10.5776 5.95163 10.4482 5.98051 10.3166 5.98052L1.6826 5.98052C1.55095 5.98051 1.42162 5.95163 1.3076 5.89678C1.19359 5.84192 1.09892 5.76302 1.03309 5.66801C0.967269 5.573 0.932616 5.46522 0.932617 5.35551C0.932618 5.2458 0.967273 5.13803 1.0331 5.04302L5.3496 0.478849Z" fill="#024349"/>
  </g>
</svg>

