<svg width="1440" height="1015" viewBox="0 0 1440 1015" fill="none" xmlns="http://www.w3.org/2000/svg">
<path d="M-496.068 -87H-554V-29.0526M-496.068 -87V-29.0526M-496.068 -87H-438.136M-496.068 -29.0526H-554M-496.068 -29.0526V28.8947M-496.068 -29.0526H-438.136M-554 -29.0526V28.8947M-496.068 28.8947H-554M-496.068 28.8947V86.8421M-496.068 28.8947H-438.136M-554 28.8947V86.8421M-496.068 86.8421H-554M-496.068 86.8421V144.789M-496.068 86.8421H-438.136M-554 86.8421V144.789M-496.068 144.789H-554M-496.068 144.789V202.737M-496.068 144.789H-438.136M-554 144.789V202.737M-496.068 202.737H-554M-496.068 202.737V260.684M-496.068 202.737H-438.136M-554 202.737V260.684M-496.068 260.684H-554M-496.068 260.684V318.632M-496.068 260.684H-438.136M-554 260.684V318.632M-496.068 318.632H-554M-496.068 318.632V376.579M-496.068 318.632H-438.136M-554 318.632V376.579M-496.068 376.579H-554M-496.068 376.579V434.526M-496.068 376.579H-438.136M-554 376.579V434.526M-496.068 434.526H-554M-496.068 434.526V492.474M-496.068 434.526H-438.136M-554 434.526V492.474M-496.068 492.474H-554M-496.068 492.474V550.421M-496.068 492.474H-438.136M-554 492.474V550.421M-496.068 550.421H-554M-496.068 550.421V608.368M-496.068 550.421H-438.136M-554 550.421V608.368M-496.068 608.368H-554M-496.068 608.368V666.316M-496.068 608.368H-438.136M-554 608.368V666.316M-496.068 666.316H-554M-496.068 666.316V724.263M-496.068 666.316H-438.136M-554 666.316V724.263M-496.068 724.263H-554M-496.068 724.263V782.211M-496.068 724.263H-438.136M-554 724.263V782.211M-496.068 782.211H-554M-496.068 782.211V840.158M-496.068 782.211H-438.136M-554 782.211V840.158M-496.068 840.158H-554M-496.068 840.158V898.105M-496.068 840.158H-438.136M-554 840.158V898.105M-496.068 898.105H-554M-496.068 898.105V956.053M-496.068 898.105H-438.136M-554 898.105V956.053M-496.068 956.053H-554M-496.068 956.053V1014M-496.068 956.053H-438.136M-554 956.053V1014H-496.068M-496.068 1014H-438.136M-438.136 -87V-29.0526M-438.136 -87H-380.205M-438.136 -29.0526V28.8947M-438.136 -29.0526H-380.205M-438.136 28.8947V86.8421M-438.136 28.8947H-380.205M-438.136 86.8421V144.789M-438.136 86.8421H-380.205M-438.136 144.789V202.737M-438.136 144.789H-380.205M-438.136 202.737V260.684M-438.136 202.737H-380.205M-438.136 260.684V318.632M-438.136 260.684H-380.205M-438.136 318.632V376.579M-438.136 318.632H-380.205M-438.136 376.579V434.526M-438.136 376.579H-380.205M-438.136 434.526V492.474M-438.136 434.526H-380.205M-438.136 492.474V550.421M-438.136 492.474H-380.205M-438.136 550.421V608.368M-438.136 550.421H-380.205M-438.136 608.368V666.316M-438.136 608.368H-380.205M-438.136 666.316V724.263M-438.136 666.316H-380.205M-438.136 724.263V782.211M-438.136 724.263H-380.205M-438.136 782.211V840.158M-438.136 782.211H-380.205M-438.136 840.158V898.105M-438.136 840.158H-380.205M-438.136 898.105V956.053M-438.136 898.105H-380.205M-438.136 956.053V1014M-438.136 956.053H-380.205M-438.136 1014H-380.205M-380.205 -87V-29.0526M-380.205 -87H-322.273M-380.205 -29.0526V28.8947M-380.205 -29.0526H-322.273M-380.205 28.8947V86.8421M-380.205 28.8947H-322.273M-380.205 86.8421V144.789M-380.205 86.8421H-322.273M-380.205 144.789V202.737M-380.205 144.789H-322.273M-380.205 202.737V260.684M-380.205 202.737H-322.273M-380.205 260.684V318.632M-380.205 260.684H-322.273M-380.205 318.632V376.579M-380.205 318.632H-322.273M-380.205 376.579V434.526M-380.205 376.579H-322.273M-380.205 434.526V492.474M-380.205 434.526H-322.273M-380.205 492.474V550.421M-380.205 492.474H-322.273M-380.205 550.421V608.368M-380.205 550.421H-322.273M-380.205 608.368V666.316M-380.205 608.368H-322.273M-380.205 666.316V724.263M-380.205 666.316H-322.273M-380.205 724.263V782.211M-380.205 724.263H-322.273M-380.205 782.211V840.158M-380.205 782.211H-322.273M-380.205 840.158V898.105M-380.205 840.158H-322.273M-380.205 898.105V956.053M-380.205 898.105H-322.273M-380.205 956.053V1014M-380.205 956.053H-322.273M-380.205 1014H-322.273M-322.273 -87V-29.0526M-322.273 -87H-264.341M-322.273 -29.0526V28.8947M-322.273 -29.0526H-264.341M-322.273 28.8947V86.8421M-322.273 28.8947H-264.341M-322.273 86.8421V144.789M-322.273 86.8421H-264.341M-322.273 144.789V202.737M-322.273 144.789H-264.341M-322.273 202.737V260.684M-322.273 202.737H-264.341M-322.273 260.684V318.632M-322.273 260.684H-264.341M-322.273 318.632V376.579M-322.273 318.632H-264.341M-322.273 376.579V434.526M-322.273 376.579H-264.341M-322.273 434.526V492.474M-322.273 434.526H-264.341M-322.273 492.474V550.421M-322.273 492.474H-264.341M-322.273 550.421V608.368M-322.273 550.421H-264.341M-322.273 608.368V666.316M-322.273 608.368H-264.341M-322.273 666.316V724.263M-322.273 666.316H-264.341M-322.273 724.263V782.211M-322.273 724.263H-264.341M-322.273 782.211V840.158M-322.273 782.211H-264.341M-322.273 840.158V898.105M-322.273 840.158H-264.341M-322.273 898.105V956.053M-322.273 898.105H-264.341M-322.273 956.053V1014M-322.273 956.053H-264.341M-322.273 1014H-264.341M-264.341 -87V-29.0526M-264.341 -87H-206.409M-264.341 -29.0526V28.8947M-264.341 -29.0526H-206.409M-264.341 28.8947V86.8421M-264.341 28.8947H-206.409M-264.341 86.8421V144.789M-264.341 86.8421H-206.409M-264.341 144.789V202.737M-264.341 144.789H-206.409M-264.341 202.737V260.684M-264.341 202.737H-206.409M-264.341 260.684V318.632M-264.341 260.684H-206.409M-264.341 318.632V376.579M-264.341 318.632H-206.409M-264.341 376.579V434.526M-264.341 376.579H-206.409M-264.341 434.526V492.474M-264.341 434.526H-206.409M-264.341 492.474V550.421M-264.341 492.474H-206.409M-264.341 550.421V608.368M-264.341 550.421H-206.409M-264.341 608.368V666.316M-264.341 608.368H-206.409M-264.341 666.316V724.263M-264.341 666.316H-206.409M-264.341 724.263V782.211M-264.341 724.263H-206.409M-264.341 782.211V840.158M-264.341 782.211H-206.409M-264.341 840.158V898.105M-264.341 840.158H-206.409M-264.341 898.105V956.053M-264.341 898.105H-206.409M-264.341 956.053V1014M-264.341 956.053H-206.409M-264.341 1014H-206.409M-206.409 -87V-29.0526M-206.409 -87H-148.477M-206.409 -29.0526V28.8947M-206.409 -29.0526H-148.477M-206.409 28.8947V86.8421M-206.409 28.8947H-148.477M-206.409 86.8421V144.789M-206.409 86.8421H-148.477M-206.409 144.789V202.737M-206.409 144.789H-148.477M-206.409 202.737V260.684M-206.409 202.737H-148.477M-206.409 260.684V318.632M-206.409 260.684H-148.477M-206.409 318.632V376.579M-206.409 318.632H-148.477M-206.409 376.579V434.526M-206.409 376.579H-148.477M-206.409 434.526V492.474M-206.409 434.526H-148.477M-206.409 492.474V550.421M-206.409 492.474H-148.477M-206.409 550.421V608.368M-206.409 550.421H-148.477M-206.409 608.368V666.316M-206.409 608.368H-148.477M-206.409 666.316V724.263M-206.409 666.316H-148.477M-206.409 724.263V782.211M-206.409 724.263H-148.477M-206.409 782.211V840.158M-206.409 782.211H-148.477M-206.409 840.158V898.105M-206.409 840.158H-148.477M-206.409 898.105V956.053M-206.409 898.105H-148.477M-206.409 956.053V1014M-206.409 956.053H-148.477M-206.409 1014H-148.477M-148.477 -87V-29.0526M-148.477 -87H-90.5454M-148.477 -29.0526V28.8947M-148.477 -29.0526H-90.5454M-148.477 28.8947V86.8421M-148.477 28.8947H-90.5454M-148.477 86.8421V144.789M-148.477 86.8421H-90.5454M-148.477 144.789V202.737M-148.477 144.789H-90.5454M-148.477 202.737V260.684M-148.477 202.737H-90.5454M-148.477 260.684V318.632M-148.477 260.684H-90.5454M-148.477 318.632V376.579M-148.477 318.632H-90.5454M-148.477 376.579V434.526M-148.477 376.579H-90.5454M-148.477 434.526V492.474M-148.477 434.526H-90.5454M-148.477 492.474V550.421M-148.477 492.474H-90.5454M-148.477 550.421V608.368M-148.477 550.421H-90.5454M-148.477 608.368V666.316M-148.477 608.368H-90.5454M-148.477 666.316V724.263M-148.477 666.316H-90.5454M-148.477 724.263V782.211M-148.477 724.263H-90.5454M-148.477 782.211V840.158M-148.477 782.211H-90.5454M-148.477 840.158V898.105M-148.477 840.158H-90.5454M-148.477 898.105V956.053M-148.477 898.105H-90.5454M-148.477 956.053V1014M-148.477 956.053H-90.5454M-148.477 1014H-90.5454M-90.5454 -87V-29.0526M-90.5454 -87H-32.6136M-90.5454 -29.0526V28.8947M-90.5454 -29.0526H-32.6136M-90.5454 28.8947V86.8421M-90.5454 28.8947H-32.6136M-90.5454 86.8421V144.789M-90.5454 86.8421H-32.6136M-90.5454 144.789V202.737M-90.5454 144.789H-32.6136M-90.5454 202.737V260.684M-90.5454 202.737H-32.6136M-90.5454 260.684V318.632M-90.5454 260.684H-32.6136M-90.5454 318.632V376.579M-90.5454 318.632H-32.6136M-90.5454 376.579V434.526M-90.5454 376.579H-32.6136M-90.5454 434.526V492.474M-90.5454 434.526H-32.6136M-90.5454 492.474V550.421M-90.5454 492.474H-32.6136M-90.5454 550.421V608.368M-90.5454 550.421H-32.6136M-90.5454 608.368V666.316M-90.5454 608.368H-32.6136M-90.5454 666.316V724.263M-90.5454 666.316H-32.6136M-90.5454 724.263V782.211M-90.5454 724.263H-32.6136M-90.5454 782.211V840.158M-90.5454 782.211H-32.6136M-90.5454 840.158V898.105M-90.5454 840.158H-32.6136M-90.5454 898.105V956.053M-90.5454 898.105H-32.6136M-90.5454 956.053V1014M-90.5454 956.053H-32.6136M-90.5454 1014H-32.6136M-32.6136 -87V-29.0526M-32.6136 -87H25.3182M-32.6136 -29.0526V28.8947M-32.6136 -29.0526H25.3182M-32.6136 28.8947V86.8421M-32.6136 28.8947H25.3182M-32.6136 86.8421V144.789M-32.6136 86.8421H25.3182M-32.6136 144.789V202.737M-32.6136 144.789H25.3182M-32.6136 202.737V260.684M-32.6136 202.737H25.3182M-32.6136 260.684V318.632M-32.6136 260.684H25.3182M-32.6136 318.632V376.579M-32.6136 318.632H25.3182M-32.6136 376.579V434.526M-32.6136 376.579H25.3182M-32.6136 434.526V492.474M-32.6136 434.526H25.3182M-32.6136 492.474V550.421M-32.6136 492.474H25.3182M-32.6136 550.421V608.368M-32.6136 550.421H25.3182M-32.6136 608.368V666.316M-32.6136 608.368H25.3182M-32.6136 666.316V724.263M-32.6136 666.316H25.3182M-32.6136 724.263V782.211M-32.6136 724.263H25.3182M-32.6136 782.211V840.158M-32.6136 782.211H25.3182M-32.6136 840.158V898.105M-32.6136 840.158H25.3182M-32.6136 898.105V956.053M-32.6136 898.105H25.3182M-32.6136 956.053V1014M-32.6136 956.053H25.3182M-32.6136 1014H25.3182M25.3182 -87V-29.0526M25.3182 -87H83.25M25.3182 -29.0526V28.8947M25.3182 -29.0526H83.25M25.3182 28.8947V86.8421M25.3182 28.8947H83.25M25.3182 86.8421V144.789M25.3182 86.8421H83.25M25.3182 144.789V202.737M25.3182 144.789H83.25M25.3182 202.737V260.684M25.3182 202.737H83.25M25.3182 260.684V318.632M25.3182 260.684H83.25M25.3182 318.632V376.579M25.3182 318.632H83.25M25.3182 376.579V434.526M25.3182 376.579H83.25M25.3182 434.526V492.474M25.3182 434.526H83.25M25.3182 492.474V550.421M25.3182 492.474H83.25M25.3182 550.421V608.368M25.3182 550.421H83.25M25.3182 608.368V666.316M25.3182 608.368H83.25M25.3182 666.316V724.263M25.3182 666.316H83.25M25.3182 724.263V782.211M25.3182 724.263H83.25M25.3182 782.211V840.158M25.3182 782.211H83.25M25.3182 840.158V898.105M25.3182 840.158H83.25M25.3182 898.105V956.053M25.3182 898.105H83.25M25.3182 956.053V1014M25.3182 956.053H83.25M25.3182 1014H83.25M83.25 -87V-29.0526M83.25 -87H141.182M83.25 -29.0526V28.8947M83.25 -29.0526H141.182M83.25 28.8947V86.8421M83.25 28.8947H141.182M83.25 86.8421V144.789M83.25 86.8421H141.182M83.25 144.789V202.737M83.25 144.789H141.182M83.25 202.737V260.684M83.25 202.737H141.182M83.25 260.684V318.632M83.25 260.684H141.182M83.25 318.632V376.579M83.25 318.632H141.182M83.25 376.579V434.526M83.25 376.579H141.182M83.25 434.526V492.474M83.25 434.526H141.182M83.25 492.474V550.421M83.25 492.474H141.182M83.25 550.421V608.368M83.25 550.421H141.182M83.25 608.368V666.316M83.25 608.368H141.182M83.25 666.316V724.263M83.25 666.316H141.182M83.25 724.263V782.211M83.25 724.263H141.182M83.25 782.211V840.158M83.25 782.211H141.182M83.25 840.158V898.105M83.25 840.158H141.182M83.25 898.105V956.053M83.25 898.105H141.182M83.25 956.053V1014M83.25 956.053H141.182M83.25 1014H141.182M141.182 -87V-29.0526M141.182 -87H199.114M141.182 -29.0526V28.8947M141.182 -29.0526H199.114M141.182 28.8947V86.8421M141.182 28.8947H199.114M141.182 86.8421V144.789M141.182 86.8421H199.114M141.182 144.789V202.737M141.182 144.789H199.114M141.182 202.737V260.684M141.182 202.737H199.114M141.182 260.684V318.632M141.182 260.684H199.114M141.182 318.632V376.579M141.182 318.632H199.114M141.182 376.579V434.526M141.182 376.579H199.114M141.182 434.526V492.474M141.182 434.526H199.114M141.182 492.474V550.421M141.182 492.474H199.114M141.182 550.421V608.368M141.182 550.421H199.114M141.182 608.368V666.316M141.182 608.368H199.114M141.182 666.316V724.263M141.182 666.316H199.114M141.182 724.263V782.211M141.182 724.263H199.114M141.182 782.211V840.158M141.182 782.211H199.114M141.182 840.158V898.105M141.182 840.158H199.114M141.182 898.105V956.053M141.182 898.105H199.114M141.182 956.053V1014M141.182 956.053H199.114M141.182 1014H199.114M199.114 -87V-29.0526M199.114 -87H257.045M199.114 -29.0526V28.8947M199.114 -29.0526H257.045M199.114 28.8947V86.8421M199.114 28.8947H257.045M199.114 86.8421V144.789M199.114 86.8421H257.045M199.114 144.789V202.737M199.114 144.789H257.045M199.114 202.737V260.684M199.114 202.737H257.045M199.114 260.684V318.632M199.114 260.684H257.045M199.114 318.632V376.579M199.114 318.632H257.045M199.114 376.579V434.526M199.114 376.579H257.045M199.114 434.526V492.474M199.114 434.526H257.045M199.114 492.474V550.421M199.114 492.474H257.045M199.114 550.421V608.368M199.114 550.421H257.045M199.114 608.368V666.316M199.114 608.368H257.045M199.114 666.316V724.263M199.114 666.316H257.045M199.114 724.263V782.211M199.114 724.263H257.045M199.114 782.211V840.158M199.114 782.211H257.045M199.114 840.158V898.105M199.114 840.158H257.045M199.114 898.105V956.053M199.114 898.105H257.045M199.114 956.053V1014M199.114 956.053H257.045M199.114 1014H257.045M257.045 -87V-29.0526M257.045 -87H314.977M257.045 -29.0526V28.8947M257.045 -29.0526H314.977M257.045 28.8947V86.8421M257.045 28.8947H314.977M257.045 86.8421V144.789M257.045 86.8421H314.977M257.045 144.789V202.737M257.045 144.789H314.977M257.045 202.737V260.684M257.045 202.737H314.977M257.045 260.684V318.632M257.045 260.684H314.977M257.045 318.632V376.579M257.045 318.632H314.977M257.045 376.579V434.526M257.045 376.579H314.977M257.045 434.526V492.474M257.045 434.526H314.977M257.045 492.474V550.421M257.045 492.474H314.977M257.045 550.421V608.368M257.045 550.421H314.977M257.045 608.368V666.316M257.045 608.368H314.977M257.045 666.316V724.263M257.045 666.316H314.977M257.045 724.263V782.211M257.045 724.263H314.977M257.045 782.211V840.158M257.045 782.211H314.977M257.045 840.158V898.105M257.045 840.158H314.977M257.045 898.105V956.053M257.045 898.105H314.977M257.045 956.053V1014M257.045 956.053H314.977M257.045 1014H314.977M314.977 -87V-29.0526M314.977 -87H372.909M314.977 -29.0526V28.8947M314.977 -29.0526H372.909M314.977 28.8947V86.8421M314.977 28.8947H372.909M314.977 86.8421V144.789M314.977 86.8421H372.909M314.977 144.789V202.737M314.977 144.789H372.909M314.977 202.737V260.684M314.977 202.737H372.909M314.977 260.684V318.632M314.977 260.684H372.909M314.977 318.632V376.579M314.977 318.632H372.909M314.977 376.579V434.526M314.977 376.579H372.909M314.977 434.526V492.474M314.977 434.526H372.909M314.977 492.474V550.421M314.977 492.474H372.909M314.977 550.421V608.368M314.977 550.421H372.909M314.977 608.368V666.316M314.977 608.368H372.909M314.977 666.316V724.263M314.977 666.316H372.909M314.977 724.263V782.211M314.977 724.263H372.909M314.977 782.211V840.158M314.977 782.211H372.909M314.977 840.158V898.105M314.977 840.158H372.909M314.977 898.105V956.053M314.977 898.105H372.909M314.977 956.053V1014M314.977 956.053H372.909M314.977 1014H372.909M372.909 -87V-29.0526M372.909 -87H430.841M372.909 -29.0526V28.8947M372.909 -29.0526H430.841M372.909 28.8947V86.8421M372.909 28.8947H430.841M372.909 86.8421V144.789M372.909 86.8421H430.841M372.909 144.789V202.737M372.909 144.789H430.841M372.909 202.737V260.684M372.909 202.737H430.841M372.909 260.684V318.632M372.909 260.684H430.841M372.909 318.632V376.579M372.909 318.632H430.841M372.909 376.579V434.526M372.909 376.579H430.841M372.909 434.526V492.474M372.909 434.526H430.841M372.909 492.474V550.421M372.909 492.474H430.841M372.909 550.421V608.368M372.909 550.421H430.841M372.909 608.368V666.316M372.909 608.368H430.841M372.909 666.316V724.263M372.909 666.316H430.841M372.909 724.263V782.211M372.909 724.263H430.841M372.909 782.211V840.158M372.909 782.211H430.841M372.909 840.158V898.105M372.909 840.158H430.841M372.909 898.105V956.053M372.909 898.105H430.841M372.909 956.053V1014M372.909 956.053H430.841M372.909 1014H430.841M430.841 -87V-29.0526M430.841 -87H488.773M430.841 -29.0526V28.8947M430.841 -29.0526H488.773M430.841 28.8947V86.8421M430.841 28.8947H488.773M430.841 86.8421V144.789M430.841 86.8421H488.773M430.841 144.789V202.737M430.841 144.789H488.773M430.841 202.737V260.684M430.841 202.737H488.773M430.841 260.684V318.632M430.841 260.684H488.773M430.841 318.632V376.579M430.841 318.632H488.773M430.841 376.579V434.526M430.841 376.579H488.773M430.841 434.526V492.474M430.841 434.526H488.773M430.841 492.474V550.421M430.841 492.474H488.773M430.841 550.421V608.368M430.841 550.421H488.773M430.841 608.368V666.316M430.841 608.368H488.773M430.841 666.316V724.263M430.841 666.316H488.773M430.841 724.263V782.211M430.841 724.263H488.773M430.841 782.211V840.158M430.841 782.211H488.773M430.841 840.158V898.105M430.841 840.158H488.773M430.841 898.105V956.053M430.841 898.105H488.773M430.841 956.053V1014M430.841 956.053H488.773M430.841 1014H488.773M488.773 -87V-29.0526M488.773 -87H546.705M488.773 -29.0526V28.8947M488.773 -29.0526H546.705M488.773 28.8947V86.8421M488.773 28.8947H546.705M488.773 86.8421V144.789M488.773 86.8421H546.705M488.773 144.789V202.737M488.773 144.789H546.705M488.773 202.737V260.684M488.773 202.737H546.705M488.773 260.684V318.632M488.773 260.684H546.705M488.773 318.632V376.579M488.773 318.632H546.705M488.773 376.579V434.526M488.773 376.579H546.705M488.773 434.526V492.474M488.773 434.526H546.705M488.773 492.474V550.421M488.773 492.474H546.705M488.773 550.421V608.368M488.773 550.421H546.705M488.773 608.368V666.316M488.773 608.368H546.705M488.773 666.316V724.263M488.773 666.316H546.705M488.773 724.263V782.211M488.773 724.263H546.705M488.773 782.211V840.158M488.773 782.211H546.705M488.773 840.158V898.105M488.773 840.158H546.705M488.773 898.105V956.053M488.773 898.105H546.705M488.773 956.053V1014M488.773 956.053H546.705M488.773 1014H546.705M546.705 -87V-29.0526M546.705 -87H604.636M546.705 -29.0526V28.8947M546.705 -29.0526H604.636M546.705 28.8947V86.8421M546.705 28.8947H604.636M546.705 86.8421V144.789M546.705 86.8421H604.636M546.705 144.789V202.737M546.705 144.789H604.636M546.705 202.737V260.684M546.705 202.737H604.636M546.705 260.684V318.632M546.705 260.684H604.636M546.705 318.632V376.579M546.705 318.632H604.636M546.705 376.579V434.526M546.705 376.579H604.636M546.705 434.526V492.474M546.705 434.526H604.636M546.705 492.474V550.421M546.705 492.474H604.636M546.705 550.421V608.368M546.705 550.421H604.636M546.705 608.368V666.316M546.705 608.368H604.636M546.705 666.316V724.263M546.705 666.316H604.636M546.705 724.263V782.211M546.705 724.263H604.636M546.705 782.211V840.158M546.705 782.211H604.636M546.705 840.158V898.105M546.705 840.158H604.636M546.705 898.105V956.053M546.705 898.105H604.636M546.705 956.053V1014M546.705 956.053H604.636M546.705 1014H604.636M604.636 -87V-29.0526M604.636 -87H662.568M604.636 -29.0526V28.8947M604.636 -29.0526H662.568M604.636 28.8947V86.8421M604.636 28.8947H662.568M604.636 86.8421V144.789M604.636 86.8421H662.568M604.636 144.789V202.737M604.636 144.789H662.568M604.636 202.737V260.684M604.636 202.737H662.568M604.636 260.684V318.632M604.636 260.684H662.568M604.636 318.632V376.579M604.636 318.632H662.568M604.636 376.579V434.526M604.636 376.579H662.568M604.636 434.526V492.474M604.636 434.526H662.568M604.636 492.474V550.421M604.636 492.474H662.568M604.636 550.421V608.368M604.636 550.421H662.568M604.636 608.368V666.316M604.636 608.368H662.568M604.636 666.316V724.263M604.636 666.316H662.568M604.636 724.263V782.211M604.636 724.263H662.568M604.636 782.211V840.158M604.636 782.211H662.568M604.636 840.158V898.105M604.636 840.158H662.568M604.636 898.105V956.053M604.636 898.105H662.568M604.636 956.053V1014M604.636 956.053H662.568M604.636 1014H662.568M662.568 -87V-29.0526M662.568 -87H720.5M662.568 -29.0526V28.8947M662.568 -29.0526H720.5M662.568 28.8947V86.8421M662.568 28.8947H720.5M662.568 86.8421V144.789M662.568 86.8421H720.5M662.568 144.789V202.737M662.568 144.789H720.5M662.568 202.737V260.684M662.568 202.737H720.5M662.568 260.684V318.632M662.568 260.684H720.5M662.568 318.632V376.579M662.568 318.632H720.5M662.568 376.579V434.526M662.568 376.579H720.5M662.568 434.526V492.474M662.568 434.526H720.5M662.568 492.474V550.421M662.568 492.474H720.5M662.568 550.421V608.368M662.568 550.421H720.5M662.568 608.368V666.316M662.568 608.368H720.5M662.568 666.316V724.263M662.568 666.316H720.5M662.568 724.263V782.211M662.568 724.263H720.5M662.568 782.211V840.158M662.568 782.211H720.5M662.568 840.158V898.105M662.568 840.158H720.5M662.568 898.105V956.053M662.568 898.105H720.5M662.568 956.053V1014M662.568 956.053H720.5M662.568 1014H720.5M720.5 -87V-29.0526M720.5 -87H778.432M720.5 -29.0526V28.8947M720.5 -29.0526H778.432M720.5 28.8947V86.8421M720.5 28.8947H778.432M720.5 86.8421V144.789M720.5 86.8421H778.432M720.5 144.789V202.737M720.5 144.789H778.432M720.5 202.737V260.684M720.5 202.737H778.432M720.5 260.684V318.632M720.5 260.684H778.432M720.5 318.632V376.579M720.5 318.632H778.432M720.5 376.579V434.526M720.5 376.579H778.432M720.5 434.526V492.474M720.5 434.526H778.432M720.5 492.474V550.421M720.5 492.474H778.432M720.5 550.421V608.368M720.5 550.421H778.432M720.5 608.368V666.316M720.5 608.368H778.432M720.5 666.316V724.263M720.5 666.316H778.432M720.5 724.263V782.211M720.5 724.263H778.432M720.5 782.211V840.158M720.5 782.211H778.432M720.5 840.158V898.105M720.5 840.158H778.432M720.5 898.105V956.053M720.5 898.105H778.432M720.5 956.053V1014M720.5 956.053H778.432M720.5 1014H778.432M778.432 -87V-29.0526M778.432 -87H836.364M778.432 -29.0526V28.8947M778.432 -29.0526H836.364M778.432 28.8947V86.8421M778.432 28.8947H836.364M778.432 86.8421V144.789M778.432 86.8421H836.364M778.432 144.789V202.737M778.432 144.789H836.364M778.432 202.737V260.684M778.432 202.737H836.364M778.432 260.684V318.632M778.432 260.684H836.364M778.432 318.632V376.579M778.432 318.632H836.364M778.432 376.579V434.526M778.432 376.579H836.364M778.432 434.526V492.474M778.432 434.526H836.364M778.432 492.474V550.421M778.432 492.474H836.364M778.432 550.421V608.368M778.432 550.421H836.364M778.432 608.368V666.316M778.432 608.368H836.364M778.432 666.316V724.263M778.432 666.316H836.364M778.432 724.263V782.211M778.432 724.263H836.364M778.432 782.211V840.158M778.432 782.211H836.364M778.432 840.158V898.105M778.432 840.158H836.364M778.432 898.105V956.053M778.432 898.105H836.364M778.432 956.053V1014M778.432 956.053H836.364M778.432 1014H836.364M836.364 -87V-29.0526M836.364 -87H894.296M836.364 -29.0526V28.8947M836.364 -29.0526H894.296M836.364 28.8947V86.8421M836.364 28.8947H894.296M836.364 86.8421V144.789M836.364 86.8421H894.296M836.364 144.789V202.737M836.364 144.789H894.296M836.364 202.737V260.684M836.364 202.737H894.296M836.364 260.684V318.632M836.364 260.684H894.296M836.364 318.632V376.579M836.364 318.632H894.296M836.364 376.579V434.526M836.364 376.579H894.296M836.364 434.526V492.474M836.364 434.526H894.296M836.364 492.474V550.421M836.364 492.474H894.296M836.364 550.421V608.368M836.364 550.421H894.296M836.364 608.368V666.316M836.364 608.368H894.296M836.364 666.316V724.263M836.364 666.316H894.296M836.364 724.263V782.211M836.364 724.263H894.296M836.364 782.211V840.158M836.364 782.211H894.296M836.364 840.158V898.105M836.364 840.158H894.296M836.364 898.105V956.053M836.364 898.105H894.296M836.364 956.053V1014M836.364 956.053H894.296M836.364 1014H894.296M894.296 -87V-29.0526M894.296 -87H952.227M894.296 -29.0526V28.8947M894.296 -29.0526H952.227M894.296 28.8947V86.8421M894.296 28.8947H952.227M894.296 86.8421V144.789M894.296 86.8421H952.227M894.296 144.789V202.737M894.296 144.789H952.227M894.296 202.737V260.684M894.296 202.737H952.227M894.296 260.684V318.632M894.296 260.684H952.227M894.296 318.632V376.579M894.296 318.632H952.227M894.296 376.579V434.526M894.296 376.579H952.227M894.296 434.526V492.474M894.296 434.526H952.227M894.296 492.474V550.421M894.296 492.474H952.227M894.296 550.421V608.368M894.296 550.421H952.227M894.296 608.368V666.316M894.296 608.368H952.227M894.296 666.316V724.263M894.296 666.316H952.227M894.296 724.263V782.211M894.296 724.263H952.227M894.296 782.211V840.158M894.296 782.211H952.227M894.296 840.158V898.105M894.296 840.158H952.227M894.296 898.105V956.053M894.296 898.105H952.227M894.296 956.053V1014M894.296 956.053H952.227M894.296 1014H952.227M952.227 -87V-29.0526M952.227 -87H1010.16M952.227 -29.0526V28.8947M952.227 -29.0526H1010.16M952.227 28.8947V86.8421M952.227 28.8947H1010.16M952.227 86.8421V144.789M952.227 86.8421H1010.16M952.227 144.789V202.737M952.227 144.789H1010.16M952.227 202.737V260.684M952.227 202.737H1010.16M952.227 260.684V318.632M952.227 260.684H1010.16M952.227 318.632V376.579M952.227 318.632H1010.16M952.227 376.579V434.526M952.227 376.579H1010.16M952.227 434.526V492.474M952.227 434.526H1010.16M952.227 492.474V550.421M952.227 492.474H1010.16M952.227 550.421V608.368M952.227 550.421H1010.16M952.227 608.368V666.316M952.227 608.368H1010.16M952.227 666.316V724.263M952.227 666.316H1010.16M952.227 724.263V782.211M952.227 724.263H1010.16M952.227 782.211V840.158M952.227 782.211H1010.16M952.227 840.158V898.105M952.227 840.158H1010.16M952.227 898.105V956.053M952.227 898.105H1010.16M952.227 956.053V1014M952.227 956.053H1010.16M952.227 1014H1010.16M1010.16 -87V-29.0526M1010.16 -87H1068.09M1010.16 -29.0526V28.8947M1010.16 -29.0526H1068.09M1010.16 28.8947V86.8421M1010.16 28.8947H1068.09M1010.16 86.8421V144.789M1010.16 86.8421H1068.09M1010.16 144.789V202.737M1010.16 144.789H1068.09M1010.16 202.737V260.684M1010.16 202.737H1068.09M1010.16 260.684V318.632M1010.16 260.684H1068.09M1010.16 318.632V376.579M1010.16 318.632H1068.09M1010.16 376.579V434.526M1010.16 376.579H1068.09M1010.16 434.526V492.474M1010.16 434.526H1068.09M1010.16 492.474V550.421M1010.16 492.474H1068.09M1010.16 550.421V608.368M1010.16 550.421H1068.09M1010.16 608.368V666.316M1010.16 608.368H1068.09M1010.16 666.316V724.263M1010.16 666.316H1068.09M1010.16 724.263V782.211M1010.16 724.263H1068.09M1010.16 782.211V840.158M1010.16 782.211H1068.09M1010.16 840.158V898.105M1010.16 840.158H1068.09M1010.16 898.105V956.053M1010.16 898.105H1068.09M1010.16 956.053V1014M1010.16 956.053H1068.09M1010.16 1014H1068.09M1068.09 -87V-29.0526M1068.09 -87H1126.02M1068.09 -29.0526V28.8947M1068.09 -29.0526H1126.02M1068.09 28.8947V86.8421M1068.09 28.8947H1126.02M1068.09 86.8421V144.789M1068.09 86.8421H1126.02M1068.09 144.789V202.737M1068.09 144.789H1126.02M1068.09 202.737V260.684M1068.09 202.737H1126.02M1068.09 260.684V318.632M1068.09 260.684H1126.02M1068.09 318.632V376.579M1068.09 318.632H1126.02M1068.09 376.579V434.526M1068.09 376.579H1126.02M1068.09 434.526V492.474M1068.09 434.526H1126.02M1068.09 492.474V550.421M1068.09 492.474H1126.02M1068.09 550.421V608.368M1068.09 550.421H1126.02M1068.09 608.368V666.316M1068.09 608.368H1126.02M1068.09 666.316V724.263M1068.09 666.316H1126.02M1068.09 724.263V782.211M1068.09 724.263H1126.02M1068.09 782.211V840.158M1068.09 782.211H1126.02M1068.09 840.158V898.105M1068.09 840.158H1126.02M1068.09 898.105V956.053M1068.09 898.105H1126.02M1068.09 956.053V1014M1068.09 956.053H1126.02M1068.09 1014H1126.02M1126.02 -87V-29.0526M1126.02 -87H1183.95M1126.02 -29.0526V28.8947M1126.02 -29.0526H1183.95M1126.02 28.8947V86.8421M1126.02 28.8947H1183.95M1126.02 86.8421V144.789M1126.02 86.8421H1183.95M1126.02 144.789V202.737M1126.02 144.789H1183.95M1126.02 202.737V260.684M1126.02 202.737H1183.95M1126.02 260.684V318.632M1126.02 260.684H1183.95M1126.02 318.632V376.579M1126.02 318.632H1183.95M1126.02 376.579V434.526M1126.02 376.579H1183.95M1126.02 434.526V492.474M1126.02 434.526H1183.95M1126.02 492.474V550.421M1126.02 492.474H1183.95M1126.02 550.421V608.368M1126.02 550.421H1183.95M1126.02 608.368V666.316M1126.02 608.368H1183.95M1126.02 666.316V724.263M1126.02 666.316H1183.95M1126.02 724.263V782.211M1126.02 724.263H1183.95M1126.02 782.211V840.158M1126.02 782.211H1183.95M1126.02 840.158V898.105M1126.02 840.158H1183.95M1126.02 898.105V956.053M1126.02 898.105H1183.95M1126.02 956.053V1014M1126.02 956.053H1183.95M1126.02 1014H1183.95M1183.95 -87V-29.0526M1183.95 -87H1241.89M1183.95 -29.0526V28.8947M1183.95 -29.0526H1241.89M1183.95 28.8947V86.8421M1183.95 28.8947H1241.89M1183.95 86.8421V144.789M1183.95 86.8421H1241.89M1183.95 144.789V202.737M1183.95 144.789H1241.89M1183.95 202.737V260.684M1183.95 202.737H1241.89M1183.95 260.684V318.632M1183.95 260.684H1241.89M1183.95 318.632V376.579M1183.95 318.632H1241.89M1183.95 376.579V434.526M1183.95 376.579H1241.89M1183.95 434.526V492.474M1183.95 434.526H1241.89M1183.95 492.474V550.421M1183.95 492.474H1241.89M1183.95 550.421V608.368M1183.95 550.421H1241.89M1183.95 608.368V666.316M1183.95 608.368H1241.89M1183.95 666.316V724.263M1183.95 666.316H1241.89M1183.95 724.263V782.211M1183.95 724.263H1241.89M1183.95 782.211V840.158M1183.95 782.211H1241.89M1183.95 840.158V898.105M1183.95 840.158H1241.89M1183.95 898.105V956.053M1183.95 898.105H1241.89M1183.95 956.053V1014M1183.95 956.053H1241.89M1183.95 1014H1241.89M1241.89 -87V-29.0526M1241.89 -87H1299.82M1241.89 -29.0526V28.8947M1241.89 -29.0526H1299.82M1241.89 28.8947V86.8421M1241.89 28.8947H1299.82M1241.89 86.8421V144.789M1241.89 86.8421H1299.82M1241.89 144.789V202.737M1241.89 144.789H1299.82M1241.89 202.737V260.684M1241.89 202.737H1299.82M1241.89 260.684V318.632M1241.89 260.684H1299.82M1241.89 318.632V376.579M1241.89 318.632H1299.82M1241.89 376.579V434.526M1241.89 376.579H1299.82M1241.89 434.526V492.474M1241.89 434.526H1299.82M1241.89 492.474V550.421M1241.89 492.474H1299.82M1241.89 550.421V608.368M1241.89 550.421H1299.82M1241.89 608.368V666.316M1241.89 608.368H1299.82M1241.89 666.316V724.263M1241.89 666.316H1299.82M1241.89 724.263V782.211M1241.89 724.263H1299.82M1241.89 782.211V840.158M1241.89 782.211H1299.82M1241.89 840.158V898.105M1241.89 840.158H1299.82M1241.89 898.105V956.053M1241.89 898.105H1299.82M1241.89 956.053V1014M1241.89 956.053H1299.82M1241.89 1014H1299.82M1299.82 -87V-29.0526M1299.82 -87H1357.75M1299.82 -29.0526V28.8947M1299.82 -29.0526H1357.75M1299.82 28.8947V86.8421M1299.82 28.8947H1357.75M1299.82 86.8421V144.789M1299.82 86.8421H1357.75M1299.82 144.789V202.737M1299.82 144.789H1357.75M1299.82 202.737V260.684M1299.82 202.737H1357.75M1299.82 260.684V318.632M1299.82 260.684H1357.75M1299.82 318.632V376.579M1299.82 318.632H1357.75M1299.82 376.579V434.526M1299.82 376.579H1357.75M1299.82 434.526V492.474M1299.82 434.526H1357.75M1299.82 492.474V550.421M1299.82 492.474H1357.75M1299.82 550.421V608.368M1299.82 550.421H1357.75M1299.82 608.368V666.316M1299.82 608.368H1357.75M1299.82 666.316V724.263M1299.82 666.316H1357.75M1299.82 724.263V782.211M1299.82 724.263H1357.75M1299.82 782.211V840.158M1299.82 782.211H1357.75M1299.82 840.158V898.105M1299.82 840.158H1357.75M1299.82 898.105V956.053M1299.82 898.105H1357.75M1299.82 956.053V1014M1299.82 956.053H1357.75M1299.82 1014H1357.75M1357.75 -87V-29.0526M1357.75 -87H1415.68M1357.75 -29.0526V28.8947M1357.75 -29.0526H1415.68M1357.75 28.8947V86.8421M1357.75 28.8947H1415.68M1357.75 86.8421V144.789M1357.75 86.8421H1415.68M1357.75 144.789V202.737M1357.75 144.789H1415.68M1357.75 202.737V260.684M1357.75 202.737H1415.68M1357.75 260.684V318.632M1357.75 260.684H1415.68M1357.75 318.632V376.579M1357.75 318.632H1415.68M1357.75 376.579V434.526M1357.75 376.579H1415.68M1357.75 434.526V492.474M1357.75 434.526H1415.68M1357.75 492.474V550.421M1357.75 492.474H1415.68M1357.75 550.421V608.368M1357.75 550.421H1415.68M1357.75 608.368V666.316M1357.75 608.368H1415.68M1357.75 666.316V724.263M1357.75 666.316H1415.68M1357.75 724.263V782.211M1357.75 724.263H1415.68M1357.75 782.211V840.158M1357.75 782.211H1415.68M1357.75 840.158V898.105M1357.75 840.158H1415.68M1357.75 898.105V956.053M1357.75 898.105H1415.68M1357.75 956.053V1014M1357.75 956.053H1415.68M1357.75 1014H1415.68M1415.68 -87V-29.0526M1415.68 -87H1473.61M1415.68 -29.0526V28.8947M1415.68 -29.0526H1473.61M1415.68 28.8947V86.8421M1415.68 28.8947H1473.61M1415.68 86.8421V144.789M1415.68 86.8421H1473.61M1415.68 144.789V202.737M1415.68 144.789H1473.61M1415.68 202.737V260.684M1415.68 202.737H1473.61M1415.68 260.684V318.632M1415.68 260.684H1473.61M1415.68 318.632V376.579M1415.68 318.632H1473.61M1415.68 376.579V434.526M1415.68 376.579H1473.61M1415.68 434.526V492.474M1415.68 434.526H1473.61M1415.68 492.474V550.421M1415.68 492.474H1473.61M1415.68 550.421V608.368M1415.68 550.421H1473.61M1415.68 608.368V666.316M1415.68 608.368H1473.61M1415.68 666.316V724.263M1415.68 666.316H1473.61M1415.68 724.263V782.211M1415.68 724.263H1473.61M1415.68 782.211V840.158M1415.68 782.211H1473.61M1415.68 840.158V898.105M1415.68 840.158H1473.61M1415.68 898.105V956.053M1415.68 898.105H1473.61M1415.68 956.053V1014M1415.68 956.053H1473.61M1415.68 1014H1473.61M1473.61 -87V-29.0526M1473.61 -87H1531.55M1473.61 -29.0526V28.8947M1473.61 -29.0526H1531.55M1473.61 28.8947V86.8421M1473.61 28.8947H1531.55M1473.61 86.8421V144.789M1473.61 86.8421H1531.55M1473.61 144.789V202.737M1473.61 144.789H1531.55M1473.61 202.737V260.684M1473.61 202.737H1531.55M1473.61 260.684V318.632M1473.61 260.684H1531.55M1473.61 318.632V376.579M1473.61 318.632H1531.55M1473.61 376.579V434.526M1473.61 376.579H1531.55M1473.61 434.526V492.474M1473.61 434.526H1531.55M1473.61 492.474V550.421M1473.61 492.474H1531.55M1473.61 550.421V608.368M1473.61 550.421H1531.55M1473.61 608.368V666.316M1473.61 608.368H1531.55M1473.61 666.316V724.263M1473.61 666.316H1531.55M1473.61 724.263V782.211M1473.61 724.263H1531.55M1473.61 782.211V840.158M1473.61 782.211H1531.55M1473.61 840.158V898.105M1473.61 840.158H1531.55M1473.61 898.105V956.053M1473.61 898.105H1531.55M1473.61 956.053V1014M1473.61 956.053H1531.55M1473.61 1014H1531.55M1531.55 -87V-29.0526M1531.55 -87H1589.48M1531.55 -29.0526V28.8947M1531.55 -29.0526H1589.48M1531.55 28.8947V86.8421M1531.55 28.8947H1589.48M1531.55 86.8421V144.789M1531.55 86.8421H1589.48M1531.55 144.789V202.737M1531.55 144.789H1589.48M1531.55 202.737V260.684M1531.55 202.737H1589.48M1531.55 260.684V318.632M1531.55 260.684H1589.48M1531.55 318.632V376.579M1531.55 318.632H1589.48M1531.55 376.579V434.526M1531.55 376.579H1589.48M1531.55 434.526V492.474M1531.55 434.526H1589.48M1531.55 492.474V550.421M1531.55 492.474H1589.48M1531.55 550.421V608.368M1531.55 550.421H1589.48M1531.55 608.368V666.316M1531.55 608.368H1589.48M1531.55 666.316V724.263M1531.55 666.316H1589.48M1531.55 724.263V782.211M1531.55 724.263H1589.48M1531.55 782.211V840.158M1531.55 782.211H1589.48M1531.55 840.158V898.105M1531.55 840.158H1589.48M1531.55 898.105V956.053M1531.55 898.105H1589.48M1531.55 956.053V1014M1531.55 956.053H1589.48M1531.55 1014H1589.48M1589.48 -87V-29.0526M1589.48 -87H1647.41M1589.48 -29.0526V28.8947M1589.48 -29.0526H1647.41M1589.48 28.8947V86.8421M1589.48 28.8947H1647.41M1589.48 86.8421V144.789M1589.48 86.8421H1647.41M1589.48 144.789V202.737M1589.48 144.789H1647.41M1589.48 202.737V260.684M1589.48 202.737H1647.41M1589.48 260.684V318.632M1589.48 260.684H1647.41M1589.48 318.632V376.579M1589.48 318.632H1647.41M1589.48 376.579V434.526M1589.48 376.579H1647.41M1589.48 434.526V492.474M1589.48 434.526H1647.41M1589.48 492.474V550.421M1589.48 492.474H1647.41M1589.48 550.421V608.368M1589.48 550.421H1647.41M1589.48 608.368V666.316M1589.48 608.368H1647.41M1589.48 666.316V724.263M1589.48 666.316H1647.41M1589.48 724.263V782.211M1589.48 724.263H1647.41M1589.48 782.211V840.158M1589.48 782.211H1647.41M1589.48 840.158V898.105M1589.48 840.158H1647.41M1589.48 898.105V956.053M1589.48 898.105H1647.41M1589.48 956.053V1014M1589.48 956.053H1647.41M1589.48 1014H1647.41M1647.41 -87V-29.0526M1647.41 -87H1705.34M1647.41 -29.0526V28.8947M1647.41 -29.0526H1705.34M1647.41 28.8947V86.8421M1647.41 28.8947H1705.34M1647.41 86.8421V144.789M1647.41 86.8421H1705.34M1647.41 144.789V202.737M1647.41 144.789H1705.34M1647.41 202.737V260.684M1647.41 202.737H1705.34M1647.41 260.684V318.632M1647.41 260.684H1705.34M1647.41 318.632V376.579M1647.41 318.632H1705.34M1647.41 376.579V434.526M1647.41 376.579H1705.34M1647.41 434.526V492.474M1647.41 434.526H1705.34M1647.41 492.474V550.421M1647.41 492.474H1705.34M1647.41 550.421V608.368M1647.41 550.421H1705.34M1647.41 608.368V666.316M1647.41 608.368H1705.34M1647.41 666.316V724.263M1647.41 666.316H1705.34M1647.41 724.263V782.211M1647.41 724.263H1705.34M1647.41 782.211V840.158M1647.41 782.211H1705.34M1647.41 840.158V898.105M1647.41 840.158H1705.34M1647.41 898.105V956.053M1647.41 898.105H1705.34M1647.41 956.053V1014M1647.41 956.053H1705.34M1647.41 1014H1705.34M1705.34 -87V-29.0526M1705.34 -87H1763.27M1705.34 -29.0526V28.8947M1705.34 -29.0526H1763.27M1705.34 28.8947V86.8421M1705.34 28.8947H1763.27M1705.34 86.8421V144.789M1705.34 86.8421H1763.27M1705.34 144.789V202.737M1705.34 144.789H1763.27M1705.34 202.737V260.684M1705.34 202.737H1763.27M1705.34 260.684V318.632M1705.34 260.684H1763.27M1705.34 318.632V376.579M1705.34 318.632H1763.27M1705.34 376.579V434.526M1705.34 376.579H1763.27M1705.34 434.526V492.474M1705.34 434.526H1763.27M1705.34 492.474V550.421M1705.34 492.474H1763.27M1705.34 550.421V608.368M1705.34 550.421H1763.27M1705.34 608.368V666.316M1705.34 608.368H1763.27M1705.34 666.316V724.263M1705.34 666.316H1763.27M1705.34 724.263V782.211M1705.34 724.263H1763.27M1705.34 782.211V840.158M1705.34 782.211H1763.27M1705.34 840.158V898.105M1705.34 840.158H1763.27M1705.34 898.105V956.053M1705.34 898.105H1763.27M1705.34 956.053V1014M1705.34 956.053H1763.27M1705.34 1014H1763.27M1763.27 -87V-29.0526M1763.27 -87H1821.2M1763.27 -29.0526V28.8947M1763.27 -29.0526H1821.2M1763.27 28.8947V86.8421M1763.27 28.8947H1821.2M1763.27 86.8421V144.789M1763.27 86.8421H1821.2M1763.27 144.789V202.737M1763.27 144.789H1821.2M1763.27 202.737V260.684M1763.27 202.737H1821.2M1763.27 260.684V318.632M1763.27 260.684H1821.2M1763.27 318.632V376.579M1763.27 318.632H1821.2M1763.27 376.579V434.526M1763.27 376.579H1821.2M1763.27 434.526V492.474M1763.27 434.526H1821.2M1763.27 492.474V550.421M1763.27 492.474H1821.2M1763.27 550.421V608.368M1763.27 550.421H1821.2M1763.27 608.368V666.316M1763.27 608.368H1821.2M1763.27 666.316V724.263M1763.27 666.316H1821.2M1763.27 724.263V782.211M1763.27 724.263H1821.2M1763.27 782.211V840.158M1763.27 782.211H1821.2M1763.27 840.158V898.105M1763.27 840.158H1821.2M1763.27 898.105V956.053M1763.27 898.105H1821.2M1763.27 956.053V1014M1763.27 956.053H1821.2M1763.27 1014H1821.2M1821.2 -87V-29.0526M1821.2 -87H1879.14M1821.2 -29.0526V28.8947M1821.2 -29.0526H1879.14M1821.2 28.8947V86.8421M1821.2 28.8947H1879.14M1821.2 86.8421V144.789M1821.2 86.8421H1879.14M1821.2 144.789V202.737M1821.2 144.789H1879.14M1821.2 202.737V260.684M1821.2 202.737H1879.14M1821.2 260.684V318.632M1821.2 260.684H1879.14M1821.2 318.632V376.579M1821.2 318.632H1879.14M1821.2 376.579V434.526M1821.2 376.579H1879.14M1821.2 434.526V492.474M1821.2 434.526H1879.14M1821.2 492.474V550.421M1821.2 492.474H1879.14M1821.2 550.421V608.368M1821.2 550.421H1879.14M1821.2 608.368V666.316M1821.2 608.368H1879.14M1821.2 666.316V724.263M1821.2 666.316H1879.14M1821.2 724.263V782.211M1821.2 724.263H1879.14M1821.2 782.211V840.158M1821.2 782.211H1879.14M1821.2 840.158V898.105M1821.2 840.158H1879.14M1821.2 898.105V956.053M1821.2 898.105H1879.14M1821.2 956.053V1014M1821.2 956.053H1879.14M1821.2 1014H1879.14M1879.14 -87V-29.0526M1879.14 -87H1937.07M1879.14 -29.0526V28.8947M1879.14 -29.0526H1937.07M1879.14 28.8947V86.8421M1879.14 28.8947H1937.07M1879.14 86.8421V144.789M1879.14 86.8421H1937.07M1879.14 144.789V202.737M1879.14 144.789H1937.07M1879.14 202.737V260.684M1879.14 202.737H1937.07M1879.14 260.684V318.632M1879.14 260.684H1937.07M1879.14 318.632V376.579M1879.14 318.632H1937.07M1879.14 376.579V434.526M1879.14 376.579H1937.07M1879.14 434.526V492.474M1879.14 434.526H1937.07M1879.14 492.474V550.421M1879.14 492.474H1937.07M1879.14 550.421V608.368M1879.14 550.421H1937.07M1879.14 608.368V666.316M1879.14 608.368H1937.07M1879.14 666.316V724.263M1879.14 666.316H1937.07M1879.14 724.263V782.211M1879.14 724.263H1937.07M1879.14 782.211V840.158M1879.14 782.211H1937.07M1879.14 840.158V898.105M1879.14 840.158H1937.07M1879.14 898.105V956.053M1879.14 898.105H1937.07M1879.14 956.053V1014M1879.14 956.053H1937.07M1879.14 1014H1937.07M1937.07 -87V-29.0526M1937.07 -87H1995V-29.0526M1937.07 -29.0526V28.8947M1937.07 -29.0526H1995M1937.07 28.8947V86.8421M1937.07 28.8947H1995M1937.07 86.8421V144.789M1937.07 86.8421H1995M1937.07 144.789V202.737M1937.07 144.789H1995M1937.07 202.737V260.684M1937.07 202.737H1995M1937.07 260.684V318.632M1937.07 260.684H1995M1937.07 318.632V376.579M1937.07 318.632H1995M1937.07 376.579V434.526M1937.07 376.579H1995M1937.07 434.526V492.474M1937.07 434.526H1995M1937.07 492.474V550.421M1937.07 492.474H1995M1937.07 550.421V608.368M1937.07 550.421H1995M1937.07 608.368V666.316M1937.07 608.368H1995M1937.07 666.316V724.263M1937.07 666.316H1995M1937.07 724.263V782.211M1937.07 724.263H1995M1937.07 782.211V840.158M1937.07 782.211H1995M1937.07 840.158V898.105M1937.07 840.158H1995M1937.07 898.105V956.053M1937.07 898.105H1995M1937.07 956.053V1014M1937.07 956.053H1995M1937.07 1014H1995V956.053M1995 -29.0526V28.8947M1995 28.8947V86.8421M1995 86.8421V144.789M1995 144.789V202.737M1995 202.737V260.684M1995 260.684V318.632M1995 318.632V376.579M1995 376.579V434.526M1995 434.526V492.474M1995 492.474V550.421M1995 550.421V608.368M1995 608.368V666.316M1995 666.316V724.263M1995 724.263V782.211M1995 782.211V840.158M1995 840.158V898.105M1995 898.105V956.053" stroke="url(#paint0_radial_2153_46132)" stroke-width="1.74474"/>
<defs>
<radialGradient id="paint0_radial_2153_46132" cx="0" cy="0" r="1" gradientUnits="userSpaceOnUse" gradientTransform="translate(720.5 463.5) rotate(90) scale(550.5 1029.18)">
<stop stop-color="white" stop-opacity="0.6"/>
<stop offset="1" stop-color="white" stop-opacity="0"/>
</radialGradient>
</defs>
</svg>
