<svg width="20" height="20" viewBox="0 0 20 20" fill="none" xmlns="http://www.w3.org/2000/svg">
<path d="M7.5 9.16675C7.5 9.82979 7.76339 10.4657 8.23223 10.9345C8.70107 11.4034 9.33696 11.6667 10 11.6667C10.663 11.6667 11.2989 11.4034 11.7678 10.9345C12.2366 10.4657 12.5 9.82979 12.5 9.16675C12.5 8.50371 12.2366 7.86782 11.7678 7.39898C11.2989 6.93014 10.663 6.66675 10 6.66675C9.33696 6.66675 8.70107 6.93014 8.23223 7.39898C7.76339 7.86782 7.5 8.50371 7.5 9.16675Z" stroke="#024349" stroke-width="2" stroke-linecap="round" stroke-linejoin="round"/>
<path d="M14.7129 13.8808L11.177 17.4167C10.8645 17.7289 10.4409 17.9042 9.99912 17.9042C9.55738 17.9042 9.13371 17.7289 8.8212 17.4167L5.28453 13.8808C4.35222 12.9485 3.71731 11.7606 3.46011 10.4674C3.2029 9.17419 3.33494 7.83376 3.83954 6.61561C4.34413 5.39746 5.19861 4.35628 6.29494 3.62376C7.39126 2.89123 8.68017 2.50024 9.9987 2.50024C11.3172 2.50024 12.6061 2.89123 13.7025 3.62376C14.7988 4.35628 15.6533 5.39746 16.1579 6.61561C16.6625 7.83376 16.7945 9.17419 16.5373 10.4674C16.2801 11.7606 15.6452 12.9485 14.7129 13.8808Z" stroke="#024349" stroke-width="2" stroke-linecap="round" stroke-linejoin="round"/>
</svg>
